<svg xmlns="http://www.w3.org/2000/svg" viewBox="0 0 700 460" role="img" aria-labelledby="t05 d05">
  <title id="t05">Vineyard 24-hour energy timeline — solar harvest, four inference spikes, and battery state-of-charge</title>
  <desc id="d05">A horizontal day-strip from midnight to midnight. A bell-shaped solar harvest curve peaks around noon. Four inference events at 7 AM, 10 AM, 2 PM, and 6 PM appear as narrow spikes against a continuous 150 mW sleep baseline. A battery state-of-charge trace overlays the strip, showing the 18.5 Wh buffer ride-through capability across roughly 1.5 days of overcast.</desc>
  <defs>
    <style>
      .ti  { font-family: Lato, 'Helvetica Neue', Arial, sans-serif; font-size: 14px; font-weight: bold; fill: #111111; }
      .lb  { font-family: Lato, 'Helvetica Neue', Arial, sans-serif; font-size: 11px; fill: #111111; }
      .sm  { font-family: Lato, 'Helvetica Neue', Arial, sans-serif; font-size: 10px; fill: #555555; }
      .cap { font-family: Lato, 'Helvetica Neue', Arial, sans-serif; font-size: 10px; font-style: italic; fill: #555555; }
      .nm  { font-family: Lato, 'Helvetica Neue', Arial, sans-serif; font-size: 11px; font-weight: bold; fill: #111111; }
    </style>
    <marker id="ar5" markerWidth="8" markerHeight="6" refX="7" refY="3" orient="auto">
      <polygon points="0 0, 8 3, 0 6" fill="#333333"/>
    </marker>
  </defs>
  <rect width="700" height="460" fill="#FFFFFF"/>

  <text x="32" y="30" class="ti">Vineyard 24-hour energy timeline — when the sensor harvests, sleeps, and infers</text>
  <text x="32" y="48" class="sm">solar harvest curve, four event-driven inferences, sleep baseline, and battery state-of-charge</text>

  <!-- Plot area: x 80–660 (580 px = 24 hr), y 80–280 -->
  <line x1="80" y1="280" x2="660" y2="280" stroke="#888888" stroke-width="1"/>
  <line x1="80" y1="80"  x2="80"  y2="280" stroke="#888888" stroke-width="1"/>

  <!-- y-axis ticks (power, 0 to 2 W) -->
  <g class="sm">
    <line x1="78" y1="280" x2="80" y2="280" stroke="#555555"/>
    <text x="74" y="283" text-anchor="end">0</text>
    <line x1="78" y1="230" x2="80" y2="230" stroke="#555555"/>
    <text x="74" y="233" text-anchor="end">0.5</text>
    <line x1="78" y1="180" x2="80" y2="180" stroke="#555555"/>
    <text x="74" y="183" text-anchor="end">1.0</text>
    <line x1="78" y1="130" x2="80" y2="130" stroke="#555555"/>
    <text x="74" y="133" text-anchor="end">1.5</text>
    <line x1="78" y1="80"  x2="80" y2="80"  stroke="#555555"/>
    <text x="74" y="83"  text-anchor="end">2.0</text>
  </g>
  <text x="34" y="180" text-anchor="middle" transform="rotate(-90 34 180)" class="lb">power (W)</text>

  <!-- Gridlines -->
  <g stroke="#EEEEEE" stroke-width="0.75">
    <line x1="80" y1="230" x2="660" y2="230"/>
    <line x1="80" y1="180" x2="660" y2="180"/>
    <line x1="80" y1="130" x2="660" y2="130"/>
  </g>

  <!-- x-axis ticks: 00:00 06:00 12:00 18:00 24:00 -->
  <g class="sm">
    <line x1="80"  y1="280" x2="80"  y2="284" stroke="#555555"/>
    <text x="80"  y="296" text-anchor="middle">00:00</text>
    <line x1="225" y1="280" x2="225" y2="284" stroke="#555555"/>
    <text x="225" y="296" text-anchor="middle">06:00</text>
    <line x1="370" y1="280" x2="370" y2="284" stroke="#555555"/>
    <text x="370" y="296" text-anchor="middle">12:00</text>
    <line x1="515" y1="280" x2="515" y2="284" stroke="#555555"/>
    <text x="515" y="296" text-anchor="middle">18:00</text>
    <line x1="660" y1="280" x2="660" y2="284" stroke="#555555"/>
    <text x="660" y="296" text-anchor="middle">24:00</text>
  </g>
  <text x="370" y="316" text-anchor="middle" class="lb">time of day</text>

  <!-- Solar harvest curve: bell from 06:00 to 18:00, peak 2 W at noon -->
  <path d="M 80 280 L 225 280 Q 297.5 80 370 80 Q 442.5 80 515 280 L 660 280 Z" fill="#F5F5F5" stroke="#888888" stroke-width="0.75"/>
  <text x="370" y="98" text-anchor="middle" class="sm">solar harvest · 0.5 W average</text>

  <!-- 150 mW sleep baseline: y = 280 - 0.15*100 = 265 -->
  <line x1="80" y1="265" x2="660" y2="265" stroke="#333333" stroke-width="1" stroke-dasharray="3 3"/>
  <text x="86" y="261" class="sm">150 mW sleep baseline</text>

  <!-- Four inference spikes at 07:00, 10:00, 14:00, 18:00 -->
  <rect x="246" y="115" width="6" height="150" fill="#111111"/>
  <text x="249" y="108" text-anchor="middle" class="sm">07:00</text>

  <rect x="319" y="115" width="6" height="150" fill="#111111"/>
  <text x="322" y="108" text-anchor="middle" class="sm">10:00</text>

  <rect x="415" y="115" width="6" height="150" fill="#111111"/>
  <text x="418" y="108" text-anchor="middle" class="sm">14:00</text>

  <rect x="512" y="115" width="6" height="150" fill="#111111"/>
  <text x="515" y="108" text-anchor="middle" class="sm">18:00</text>

  <!-- Inference event annotation -->
  <path d="M 252 115 L 280 105 L 280 75" fill="none" stroke="#333333" stroke-width="0.75" marker-end="url(#ar5)"/>
  <text x="280" y="68" text-anchor="middle" class="lb">4.3 J per event · ~2 s · 1.5 W</text>

  <!-- Battery SOC trace (panel beneath) -->
  <text x="32" y="346" class="nm">Battery state-of-charge (18.5 Wh buffer)</text>
  <line x1="80"  y1="392" x2="660" y2="392" stroke="#888888" stroke-width="1"/>
  <line x1="80"  y1="354" x2="80"  y2="392" stroke="#888888" stroke-width="1"/>
  <g class="sm">
    <text x="74" y="357" text-anchor="end">100%</text>
    <text x="74" y="395" text-anchor="end">0%</text>
  </g>

  <!-- SOC trace -->
  <path d="M 80 360 L 110 366 L 140 372 L 180 376 L 225 378 Q 240 378 249 380 L 252 380 L 260 380 L 319 382 L 322 382 L 330 382 Q 350 374 370 360 Q 400 354 415 354 L 418 354 L 430 354 L 512 358 L 515 358 L 530 360 L 580 374 L 660 384" fill="none" stroke="#333333" stroke-width="1.5"/>

  <!-- 1.5-day ride-through annotation -->
  <line x1="80"  y1="408" x2="280" y2="408" stroke="#333333" stroke-width="0.75"/>
  <line x1="80"  y1="404" x2="80"  y2="412" stroke="#333333" stroke-width="0.75"/>
  <line x1="280" y1="404" x2="280" y2="412" stroke="#333333" stroke-width="0.75"/>
  <text x="180" y="422" text-anchor="middle" class="sm">1.5-day overcast ride-through window covered by buffer</text>

  <text x="540" y="444" text-anchor="middle" class="cap">Energy balance positive on average; battery covers the variance.</text>
</svg>
