<svg xmlns="http://www.w3.org/2000/svg" viewBox="0 0 700 480" role="img" aria-labelledby="t10f5 d10f5">
  <title id="t10f5">CNC milling integration timeline — three tracks showing how AI is removed from the hard real-time path</title>
  <desc id="d10f5">A three-track timeline. The top track is a 1 kHz control loop reading fault_probability and fault_flag every millisecond. The middle track is an asynchronous AI inference firing every 50 milliseconds. The bottom track is the RMS backup detector running every millisecond. A fault onset event triggers the RMS detector at +2 ms while the AI does not finish until +38 ms.</desc>
  <defs>
    <style>
      .ti { font-family: Lato, 'Helvetica Neue', Arial, sans-serif; font-size: 13px; font-weight: bold; fill: #111111; }
      .lb { font-family: Lato, 'Helvetica Neue', Arial, sans-serif; font-size: 11px; fill: #111111; }
      .sm { font-family: Lato, 'Helvetica Neue', Arial, sans-serif; font-size: 10px; fill: #555555; }
      .cap { font-family: Lato, 'Helvetica Neue', Arial, sans-serif; font-size: 10px; font-style: italic; fill: #555555; }
      .nm { font-family: Lato, 'Helvetica Neue', Arial, sans-serif; font-size: 11px; font-weight: bold; fill: #111111; }
      .eb { font-family: Lato, 'Helvetica Neue', Arial, sans-serif; font-size: 9px; letter-spacing: 0.5px; fill: #555555; }
      .ax { font-family: Lato, 'Helvetica Neue', Arial, sans-serif; font-size: 9px; fill: #555555; }
    </style>
    <marker id="ar1f5" markerWidth="8" markerHeight="6" refX="7" refY="3" orient="auto">
      <polygon points="0 0, 8 3, 0 6" fill="#111111"/>
    </marker>
    <marker id="ar2f5" markerWidth="6" markerHeight="4" refX="5" refY="2" orient="auto">
      <polygon points="0 0, 6 2, 0 4" fill="#666666"/>
    </marker>
  </defs>
  <rect width="700" height="480" fill="#FFFFFF"/>

  <text x="32" y="30" class="ti">CNC milling integration — three tracks, three deadlines, one safety outcome</text>
  <text x="32" y="48" class="sm">Spindle 10,000 RPM · 1 ms control loop · 5 ms shutdown budget · AI takes 35–55 ms per inference</text>

  <!-- Time axis: x=60..640 covers 0..60 ms. px/ms = 580/60 = 9.667 -->
  <!-- Gridlines at 0,10,20,30,40,50,60 ms -->
  <g stroke="#DDDDDD" stroke-width="0.5" stroke-dasharray="2 3">
    <line x1="60"  y1="80" x2="60"  y2="345"/>
    <line x1="157" y1="80" x2="157" y2="345"/>
    <line x1="253" y1="80" x2="253" y2="345"/>
    <line x1="350" y1="80" x2="350" y2="345"/>
    <line x1="447" y1="80" x2="447" y2="345"/>
    <line x1="543" y1="80" x2="543" y2="345"/>
    <line x1="640" y1="80" x2="640" y2="345"/>
  </g>

  <!-- x-axis -->
  <line x1="60" y1="345" x2="640" y2="345" stroke="#555555"/>
  <text x="60"  y="361" text-anchor="middle" class="ax">0</text>
  <text x="157" y="361" text-anchor="middle" class="ax">10</text>
  <text x="253" y="361" text-anchor="middle" class="ax">20</text>
  <text x="350" y="361" text-anchor="middle" class="ax">30</text>
  <text x="447" y="361" text-anchor="middle" class="ax">40</text>
  <text x="543" y="361" text-anchor="middle" class="ax">50</text>
  <text x="640" y="361" text-anchor="middle" class="ax">60 ms</text>
  <text x="350" y="377" text-anchor="middle" class="sm">time after fault onset</text>

  <!-- Track 1: control loop 1 kHz, y≈88–122 -->
  <text x="32" y="88" class="eb">CONTROL LOOP · 1 kHz</text>
  <text x="32" y="100" class="nm">reads fault_flag, fault_probability</text>
  <text x="32" y="112" class="sm">deadline 1 ms · deterministic</text>
  <line x1="60" y1="122" x2="640" y2="122" stroke="#555555" stroke-width="0.75"/>
  <g fill="#111111">
    <rect x="60"   y="118" width="2" height="8"/>
    <rect x="69.7" y="118" width="2" height="8"/>
    <rect x="79.3" y="118" width="2" height="8"/>
    <rect x="89.0" y="118" width="2" height="8"/>
    <rect x="98.7" y="118" width="2" height="8"/>
    <rect x="108.3" y="118" width="2" height="8"/>
    <rect x="118.0" y="118" width="2" height="8"/>
    <rect x="127.7" y="118" width="2" height="8"/>
    <rect x="137.3" y="118" width="2" height="8"/>
    <rect x="147.0" y="118" width="2" height="8"/>
    <rect x="156.7" y="118" width="2" height="8"/>
    <rect x="166.3" y="118" width="2" height="8"/>
    <rect x="176.0" y="118" width="2" height="8"/>
    <rect x="185.7" y="118" width="2" height="8"/>
    <rect x="195.3" y="118" width="2" height="8"/>
    <rect x="205.0" y="118" width="2" height="8"/>
    <rect x="214.7" y="118" width="2" height="8"/>
    <rect x="224.3" y="118" width="2" height="8"/>
    <rect x="234.0" y="118" width="2" height="8"/>
    <rect x="243.7" y="118" width="2" height="8"/>
    <rect x="253.3" y="118" width="2" height="8"/>
    <rect x="263.0" y="118" width="2" height="8"/>
    <rect x="272.7" y="118" width="2" height="8"/>
    <rect x="282.3" y="118" width="2" height="8"/>
    <rect x="292.0" y="118" width="2" height="8"/>
    <rect x="301.7" y="118" width="2" height="8"/>
    <rect x="311.3" y="118" width="2" height="8"/>
    <rect x="321.0" y="118" width="2" height="8"/>
    <rect x="330.7" y="118" width="2" height="8"/>
    <rect x="340.3" y="118" width="2" height="8"/>
    <rect x="350.0" y="118" width="2" height="8"/>
    <rect x="359.7" y="118" width="2" height="8"/>
    <rect x="369.3" y="118" width="2" height="8"/>
    <rect x="379.0" y="118" width="2" height="8"/>
    <rect x="388.7" y="118" width="2" height="8"/>
    <rect x="398.3" y="118" width="2" height="8"/>
    <rect x="408.0" y="118" width="2" height="8"/>
    <rect x="417.7" y="118" width="2" height="8"/>
    <rect x="427.3" y="118" width="2" height="8"/>
    <rect x="437.0" y="118" width="2" height="8"/>
    <rect x="446.7" y="118" width="2" height="8"/>
    <rect x="456.3" y="118" width="2" height="8"/>
    <rect x="466.0" y="118" width="2" height="8"/>
    <rect x="475.7" y="118" width="2" height="8"/>
    <rect x="485.3" y="118" width="2" height="8"/>
    <rect x="495.0" y="118" width="2" height="8"/>
    <rect x="504.7" y="118" width="2" height="8"/>
    <rect x="514.3" y="118" width="2" height="8"/>
    <rect x="524.0" y="118" width="2" height="8"/>
    <rect x="533.7" y="118" width="2" height="8"/>
    <rect x="543.3" y="118" width="2" height="8"/>
    <rect x="553.0" y="118" width="2" height="8"/>
    <rect x="562.7" y="118" width="2" height="8"/>
    <rect x="572.3" y="118" width="2" height="8"/>
    <rect x="582.0" y="118" width="2" height="8"/>
    <rect x="591.7" y="118" width="2" height="8"/>
    <rect x="601.3" y="118" width="2" height="8"/>
    <rect x="611.0" y="118" width="2" height="8"/>
    <rect x="620.7" y="118" width="2" height="8"/>
    <rect x="630.3" y="118" width="2" height="8"/>
  </g>

  <!-- Track 2: AI inference async every 50 ms, y≈150–210 -->
  <text x="32" y="152" class="eb">AI INFERENCE · every 50 ms</text>
  <text x="32" y="164" class="nm">updates fault_probability</text>
  <text x="32" y="176" class="sm">no hard deadline · advisory only</text>
  <!-- inference bar: t=0 to t=38ms → x=60 to x=60+38*9.667=427 -->
  <rect x="60" y="188" width="367" height="20" fill="#F5F5F5" stroke="#666666" stroke-width="0.75"/>
  <text x="244" y="202" text-anchor="middle" class="sm">inference run · 38 ms</text>
  <!-- second inference scheduled at 50 ms -->
  <rect x="543" y="188" width="97" height="20" fill="#F5F5F5" stroke="#888888" stroke-width="0.75" stroke-dasharray="3 2"/>
  <text x="591" y="202" text-anchor="middle" class="sm">next · scheduled</text>
  <!-- fault_probability update dot -->
  <circle cx="427" cy="198" r="4" fill="#111111"/>
  <text x="432" y="182" class="sm">fault_probability ← 0.97 (at +38 ms)</text>

  <!-- Track 3: RMS backup detector every 1 ms, y≈232–290 -->
  <text x="32" y="236" class="eb">RMS BACKUP DETECTOR · 1 kHz</text>
  <text x="32" y="248" class="nm">deterministic, in-loop</text>
  <text x="32" y="260" class="sm">trips fault_flag on threshold</text>
  <line x1="60" y1="275" x2="640" y2="275" stroke="#555555" stroke-width="0.75"/>
  <g fill="#666666">
    <rect x="60"   y="271" width="2" height="8"/>
    <rect x="69.7" y="271" width="2" height="8"/>
    <rect x="79.3" y="271" width="2" height="8"/>
    <rect x="89.0" y="271" width="2" height="8"/>
    <rect x="98.7" y="271" width="2" height="8"/>
    <rect x="108.3" y="271" width="2" height="8"/>
    <rect x="118.0" y="271" width="2" height="8"/>
    <rect x="127.7" y="271" width="2" height="8"/>
    <rect x="137.3" y="271" width="2" height="8"/>
    <rect x="147.0" y="271" width="2" height="8"/>
    <rect x="156.7" y="271" width="2" height="8"/>
    <rect x="166.3" y="271" width="2" height="8"/>
    <rect x="176.0" y="271" width="2" height="8"/>
    <rect x="185.7" y="271" width="2" height="8"/>
    <rect x="195.3" y="271" width="2" height="8"/>
    <rect x="205.0" y="271" width="2" height="8"/>
    <rect x="214.7" y="271" width="2" height="8"/>
    <rect x="224.3" y="271" width="2" height="8"/>
    <rect x="234.0" y="271" width="2" height="8"/>
    <rect x="243.7" y="271" width="2" height="8"/>
    <rect x="253.3" y="271" width="2" height="8"/>
    <rect x="263.0" y="271" width="2" height="8"/>
    <rect x="272.7" y="271" width="2" height="8"/>
    <rect x="282.3" y="271" width="2" height="8"/>
    <rect x="292.0" y="271" width="2" height="8"/>
    <rect x="301.7" y="271" width="2" height="8"/>
    <rect x="311.3" y="271" width="2" height="8"/>
    <rect x="321.0" y="271" width="2" height="8"/>
    <rect x="330.7" y="271" width="2" height="8"/>
    <rect x="340.3" y="271" width="2" height="8"/>
    <rect x="350.0" y="271" width="2" height="8"/>
  </g>
  <!-- detection point at t=2 ms → x = 60 + 2*9.667 = 79.3 -->
  <circle cx="79.3" cy="275" r="5" fill="#111111"/>
  <text x="88" y="268" class="sm">fault_flag ← true (at +2 ms)</text>

  <!-- Vertical event lines -->
  <!-- t=0 fault onset -->
  <line x1="60" y1="76" x2="60" y2="325" stroke="#111111" stroke-width="1.5"/>
  <text x="60" y="72" text-anchor="middle" class="nm">fault onset</text>

  <!-- t=5 ms shutdown deadline -->
  <line x1="108.3" y1="76" x2="108.3" y2="325" stroke="#333333" stroke-width="1" stroke-dasharray="4 3"/>
  <text x="108.3" y="72" text-anchor="middle" class="nm">5 ms deadline</text>

  <!-- t=38 ms AI advisory -->
  <line x1="427" y1="76" x2="427" y2="325" stroke="#888888" stroke-width="1" stroke-dasharray="3 2"/>
  <text x="427" y="72" text-anchor="middle" class="sm">AI advisory · +38 ms</text>

  <!-- Outcome annotation box -->
  <rect x="60" y="390" width="580" height="42" fill="#F5F5F5" stroke="#333333"/>
  <text x="76" y="408" class="lb">Shutdown triggered by RMS at +2 ms — well inside the 5 ms budget.</text>
  <text x="76" y="424" class="sm">AI advisory arrives at +38 ms and would have missed; it serves as early-warning on slower-developing faults, not as the guarantee.</text>

  <text x="350" y="462" text-anchor="middle" class="cap">The AI is in the system. The deadline is met by something else. That is the architecture, not a workaround.</text>
</svg>
