<svg xmlns="http://www.w3.org/2000/svg" viewBox="0 0 700 450" role="img" aria-labelledby="t05 d05">
  <title id="t05">Knowledge distillation pipeline — soft labels carry the dark knowledge</title>
  <desc id="d05">A pipeline showing one input image flowing into both a large teacher network and a small student network. The teacher outputs a softened probability distribution; the student outputs its own distribution. Both feed a mixed loss combining hard-label cross-entropy with soft-label KL divergence.</desc>
  <defs>
    <style>
      .ti   { font-family: Lato, 'Helvetica Neue', Arial, sans-serif; font-size: 14px; font-weight: bold; fill: #111111; }
      .lb   { font-family: Lato, 'Helvetica Neue', Arial, sans-serif; font-size: 12px; fill: #333333; }
      .sm   { font-family: Lato, 'Helvetica Neue', Arial, sans-serif; font-size: 10px; fill: #555555; }
      .nm   { font-family: Lato, 'Helvetica Neue', Arial, sans-serif; font-size: 10px; font-style: italic; fill: #555555; }
      .cap  { font-family: Lato, 'Helvetica Neue', Arial, sans-serif; font-size: 11px; font-style: italic; fill: #555555; }
      .badge{ font-family: Lato, 'Helvetica Neue', Arial, sans-serif; font-size: 11px; font-weight: bold; fill: #FFFFFF; }
      .mono { font-family: Lato, 'Helvetica Neue', Arial, sans-serif; font-size: 11px; font-style: italic; fill: #333333; }
    </style>
    <marker id="ar" markerWidth="9" markerHeight="7" refX="8" refY="3.5" orient="auto">
      <polygon points="0 0,9 3.5,0 7" fill="#333333"/>
    </marker>
    <marker id="arDash" markerWidth="9" markerHeight="7" refX="8" refY="3.5" orient="auto">
      <polygon points="0 0,9 3.5,0 7" fill="#666666"/>
    </marker>
  </defs>
  <rect width="700" height="450" fill="#FFFFFF"/>

  <text x="32" y="32" class="ti">Distillation: the teacher's distribution is richer than the one-hot label</text>
  <text x="32" y="50" class="nm">student loss = α · hard cross-entropy + (1 − α) · soft KL divergence at temperature T</text>

  <!-- INPUT image -->
  <rect x="32" y="188" width="60" height="60" fill="#F5F5F5" stroke="#333333" stroke-width="1.5"/>
  <text x="62" y="214" text-anchor="middle" class="sm">[image]</text>
  <text x="62" y="230" text-anchor="middle" class="sm">cat</text>
  <text x="62" y="268" text-anchor="middle" class="sm">input</text>

  <!-- branch to teacher (top) -->
  <path d="M 92 208 L 140 130" fill="none" stroke="#333333" stroke-width="1.2" marker-end="url(#ar)"/>
  <!-- branch to student (bottom) -->
  <path d="M 92 238 L 140 312" fill="none" stroke="#333333" stroke-width="1.2" marker-end="url(#ar)"/>

  <!-- TEACHER box -->
  <rect x="140" y="90"  width="140" height="80" fill="#F5F5F5" stroke="#333333" stroke-width="1.5"/>
  <rect x="140" y="90"  width="140" height="22" fill="#333333"/>
  <text x="210" y="106" text-anchor="middle" class="badge">TEACHER — LARGE</text>
  <text x="210" y="134" text-anchor="middle" class="lb">trained float32</text>
  <text x="210" y="152" text-anchor="middle" class="sm">frozen during distillation</text>

  <!-- teacher → soft distribution -->
  <path d="M 280 130 L 322 130" fill="none" stroke="#333333" stroke-width="1.2" marker-end="url(#ar)"/>

  <!-- soft distribution bars (teacher) -->
  <text x="390" y="84" text-anchor="middle" class="lb">soft labels (T &gt; 1)</text>
  <rect x="328" y="166" width="8" height="1"   fill="#555555"/>
  <rect x="338" y="165" width="8" height="2"   fill="#555555"/>
  <rect x="348" y="118" width="8" height="49"  fill="#333333"/>
  <rect x="358" y="163" width="8" height="4"   fill="#555555"/>
  <rect x="368" y="166" width="8" height="1"   fill="#555555"/>
  <rect x="378" y="165" width="8" height="2"   fill="#555555"/>
  <rect x="388" y="166" width="8" height="1"   fill="#555555"/>
  <rect x="398" y="166" width="8" height="1"   fill="#555555"/>
  <rect x="408" y="166" width="8" height="1"   fill="#555555"/>
  <rect x="418" y="166" width="8" height="1"   fill="#555555"/>
  <line x1="328" y1="167" x2="426" y2="167" stroke="#333333" stroke-width="0.8"/>
  <text x="352" y="112" text-anchor="middle" class="sm">cat 0.85</text>
  <text x="362" y="158" text-anchor="middle" class="sm">dog 0.05</text>

  <!-- HARD LABEL box -->
  <rect x="500" y="96"  width="162" height="68" fill="#F5F5F5" stroke="#666666" stroke-width="1.5"/>
  <rect x="500" y="96"  width="162" height="22" fill="#666666"/>
  <text x="581" y="112" text-anchor="middle" class="badge">HARD LABEL</text>
  <text x="581" y="134" text-anchor="middle" class="sm">[0, 0, 1, 0, 0, 0, 0, 0, 0, 0]</text>
  <text x="581" y="151" text-anchor="middle" class="sm">one-hot · "it's a cat"</text>

  <!-- STUDENT box -->
  <rect x="140" y="290" width="100" height="60" fill="#F5F5F5" stroke="#333333" stroke-width="1.5"/>
  <rect x="140" y="290" width="100" height="22" fill="#555555"/>
  <text x="190" y="306" text-anchor="middle" class="badge">STUDENT</text>
  <text x="190" y="328" text-anchor="middle" class="lb">small · int8-ready</text>
  <text x="190" y="344" text-anchor="middle" class="sm">trainable</text>

  <!-- student → its distribution -->
  <path d="M 240 320 L 282 320" fill="none" stroke="#333333" stroke-width="1.2" marker-end="url(#ar)"/>

  <!-- student distribution bars -->
  <text x="332" y="284" text-anchor="middle" class="lb">student output</text>
  <rect x="288" y="346" width="8" height="2"   fill="#555555"/>
  <rect x="298" y="343" width="8" height="5"   fill="#555555"/>
  <rect x="308" y="306" width="8" height="42"  fill="#333333"/>
  <rect x="318" y="340" width="8" height="8"   fill="#555555"/>
  <rect x="328" y="345" width="8" height="3"   fill="#555555"/>
  <rect x="338" y="346" width="8" height="2"   fill="#555555"/>
  <rect x="348" y="347" width="8" height="1"   fill="#555555"/>
  <rect x="358" y="347" width="8" height="1"   fill="#555555"/>
  <rect x="368" y="347" width="8" height="1"   fill="#555555"/>
  <rect x="378" y="347" width="8" height="1"   fill="#555555"/>
  <line x1="288" y1="349" x2="386" y2="349" stroke="#333333" stroke-width="0.8"/>

  <!-- MIXED LOSS box -->
  <rect x="500" y="220" width="162" height="100" fill="#F5F5F5" stroke="#111111" stroke-width="2"/>
  <rect x="500" y="220" width="162" height="22"  fill="#111111"/>
  <text x="581" y="236" text-anchor="middle" class="badge">MIXED LOSS</text>
  <text x="510" y="260" class="mono">α · L_hard</text>
  <text x="510" y="279" class="sm">cross-entropy vs one-hot</text>
  <text x="510" y="298" class="mono">(1 − α) · L_soft</text>
  <text x="510" y="315" class="sm">KL divergence at temperature T</text>

  <!-- soft distribution → loss (dashed dark) -->
  <path d="M 426 145 Q 470 220 500 252" fill="none" stroke="#555555" stroke-width="1.2" stroke-dasharray="4 3" marker-end="url(#arDash)"/>
  <text x="447" y="210" class="sm">soft signal</text>

  <!-- hard label → loss -->
  <path d="M 581 164 L 581 218" fill="none" stroke="#666666" stroke-width="1.2" marker-end="url(#ar)"/>
  <text x="590" y="194" class="sm">hard signal</text>

  <!-- student dist → loss -->
  <path d="M 386 320 Q 440 320 500 290" fill="none" stroke="#333333" stroke-width="1.2" marker-end="url(#ar)"/>
  <text x="432" y="335" class="sm">student prediction</text>

  <!-- loss → student gradient feedback -->
  <path d="M 581 320 Q 581 390 200 362" fill="none" stroke="#555555" stroke-width="1" stroke-dasharray="3 3" marker-end="url(#arDash)"/>
  <text x="400" y="392" text-anchor="middle" class="nm">gradient update — only the student learns</text>

  <text x="350" y="428" text-anchor="middle" class="cap">The teacher's 5% on "dog" tells the student which mistakes are reasonable. The one-hot label throws that away.</text>
</svg>
