<?xml version="1.0" encoding="UTF-8"?>
<svg id="Layer_1" xmlns="http://www.w3.org/2000/svg" version="1.1" viewBox="0 0 700 420">
  <!-- Generator: Adobe Illustrator 30.4.0, SVG Export Plug-In . SVG Version: 2.1.4 Build 226)  -->
  <defs>
    <style>
      .st0, .st1 {
        stroke: #000000;
      }

      .st0, .st1, .st2, .st3, .st4, .st5 {
        fill: none;
      }

      .st0, .st2 {
        stroke-width: 2px;
      }

      .st6 {
        font-size: 9px;
      }

      .st6, .st7, .st8 {
        font-family: 'Real Head Pro', 'FF Real', Lato, sans-serif;
      }

      .st6, .st7, .st8, .st9, .st10, .st11 {
        isolation: isolate;
      }

      .st6, .st8, .st12, .st10 {
        fill: #000000;
      }

      .st7, .st9 {
        font-size: 10px;
      }

      .st7, .st9, .st13 {
        fill: #555555;
      }

      .st8 {
        font-size: 11px;
      }

      .st1, .st4 {
        stroke-dasharray: 2 3;
      }

      .st2 {
        stroke-dasharray: 4 3;
      }

      .st2, .st4, .st5 {
        stroke: #555555;
      }

      .st9 {
        font-family: 'Real Head Pro', 'FF Real', Lato, sans-serif;
        font-style: italic;
      }

      .st3 {
        stroke: #787878;
      }

      .st10 {
        font-family: 'Real Head Pro', 'FF Real', Lato, sans-serif;
        font-size: 14px;
        font-weight: 700;
      }

      .st11 {
        fill: #ADADAD;
        opacity: .45;
      }

      .st14 {
        fill: #FFFFFF;
      }
    </style>
  </defs>
  <rect class="st14" width="700" height="420"/>
  <text class="st10" transform="translate(32 28)"><tspan x="0" y="0">Activation footprint across a small CNN</tspan></text>
  <text class="st7" transform="translate(32 44)"><tspan x="0" y="0">naive allocation sums every buffer · reuse keeps only the largest live tensor</tspan></text>
  <line class="st3" x1="80" y1="80" x2="80" y2="340"/>
  <line class="st3" x1="80" y1="340" x2="650" y2="340"/>
  <g>
    <text class="st7" transform="translate(68.9 343)"><tspan x="0" y="0">0</tspan></text>
    <line class="st5" x1="78" y1="288" x2="80" y2="288"/>
    <text class="st7" transform="translate(46.94 291)"><tspan x="0" y="0">500 KB</tspan></text>
    <line class="st5" x1="78" y1="236" x2="80" y2="236"/>
    <text class="st7" transform="translate(55.94 239)"><tspan x="0" y="0">1000</tspan></text>
    <line class="st5" x1="78" y1="184" x2="80" y2="184"/>
    <text class="st7" transform="translate(57.76 187)"><tspan x="0" y="0">1500</tspan></text>
    <line class="st5" x1="78" y1="132" x2="80" y2="132"/>
    <text class="st7" transform="translate(54.55 135)"><tspan x="0" y="0">2000</tspan></text>
    <line class="st5" x1="78" y1="80" x2="80" y2="80"/>
    <text class="st7" transform="translate(56.37 83)"><tspan x="0" y="0">2500</tspan></text>
  </g>
  <polyline class="st0" points="130 328.6 224 209 318 178 412 118.1 506 103.1 600 103.1"/>
  <polyline class="st2" points="130 328.6 224 220.4 318 310.1 412 280.1 506 325 600 340"/>
  <polygon class="st11" points="130 328.6 224 209 318 178 412 118.1 506 103.1 600 103.1 600 340 506 325 412 280.1 318 310.1 224 220.4 130 328.6"/>
  <polyline class="st0" points="130 328.6 224 209 318 178 412 118.1 506 103.1 600 103.1"/>
  <polyline class="st2" points="130 328.6 224 220.4 318 310.1 412 280.1 506 325 600 340"/>
  <g>
    <circle class="st12" cx="130" cy="328.6" r="3"/>
    <circle class="st12" cx="224" cy="209" r="3"/>
    <circle class="st12" cx="318" cy="178" r="3"/>
    <circle class="st12" cx="412" cy="118.1" r="3"/>
    <circle class="st12" cx="506" cy="103.1" r="3"/>
    <circle class="st12" cx="600" cy="103.1" r="3"/>
  </g>
  <g>
    <circle class="st13" cx="130" cy="328.6" r="3"/>
    <circle class="st13" cx="224" cy="220.4" r="3"/>
    <circle class="st13" cx="318" cy="310.1" r="3"/>
    <circle class="st13" cx="412" cy="280.1" r="3"/>
    <circle class="st13" cx="506" cy="325" r="3"/>
    <circle class="st13" cx="600" cy="340" r="3"/>
  </g>
  <g>
    <text class="st7" transform="translate(119.36 355)"><tspan x="0" y="0">Input</tspan></text>
    <text class="st7" transform="translate(115.25 367)"><tspan x="0" y="0">96×96×3</tspan></text>
    <text class="st7" transform="translate(212.07 355)"><tspan x="0" y="0">Conv1</tspan></text>
    <text class="st7" transform="translate(207.18 367)"><tspan x="0" y="0">96×96×32</tspan></text>
    <text class="st7" transform="translate(307.7 355)"><tspan x="0" y="0">Pool1</tspan></text>
    <text class="st7" transform="translate(301.19 367)"><tspan x="0" y="0">48×48×32</tspan></text>
    <text class="st7" transform="translate(399.38 355)"><tspan x="0" y="0">Conv2</tspan></text>
    <text class="st7" transform="translate(393.82 367)"><tspan x="0" y="0">48×48×64</tspan></text>
    <text class="st7" transform="translate(495 355)"><tspan x="0" y="0">Pool2</tspan></text>
    <text class="st7" transform="translate(487.79 367)"><tspan x="0" y="0">24×24×64</tspan></text>
    <text class="st7" transform="translate(594.17 355)"><tspan x="0" y="0">FC</tspan></text>
    <text class="st7" transform="translate(596.07 367)"><tspan x="0" y="0">10</tspan></text>
  </g>
  <line class="st1" x1="600" y1="103.1" x2="650" y2="103.1"/>
  <text class="st6" transform="translate(575.09 84.69)"><tspan x="0" y="0">naive peak 2.27 MB</tspan></text>
  <line class="st4" x1="224" y1="220.4" x2="280" y2="220.4"/>
  <text class="st6" transform="translate(282 218)"><tspan x="0" y="0">reuse peak 1.15 MB (Conv1)</tspan></text>
  <line class="st0" x1="450" y1="62" x2="478" y2="62"/>
  <text class="st8" transform="translate(484 65)"><tspan x="0" y="0">naive cumulative</tspan></text>
  <line class="st2" x1="568" y1="62" x2="596" y2="62"/>
  <text class="st8" transform="translate(600 65)"><tspan x="0" y="0">buffer reuse</tspan></text>
  <text class="st9" transform="translate(115.2 395)"><tspan x="0" y="0">The gap is the savings: peak SRAM drops from 2.27 MB (dead on a 256 KB part) to 1.15 MB by reusing buffers across layers.</tspan></text>
</svg>