<svg xmlns="http://www.w3.org/2000/svg" viewBox="0 0 700 440" role="img" aria-labelledby="t03 d03">
  <title id="t03">Unstructured vs structured pruning — what actually shrinks on an MCU</title>
  <desc id="d03">Two weight-matrix diagrams side by side. The left shows unstructured pruning with scattered zero values throughout a same-sized matrix; the right shows structured pruning with entire output channels removed, leaving a smaller dense matrix. Annotations indicate which version saves SRAM and latency.</desc>
  <defs>
    <style>
      .ti { font-family: 'EB Garamond', Georgia, 'Times New Roman', serif; font-size: 14px; font-weight: bold; fill: #2a1a0e; }
      .ph { font-family: 'EB Garamond', Georgia, 'Times New Roman', serif; font-size: 13px; font-weight: bold; fill: #2a1a0e; }
      .lb { font-family: 'EB Garamond', Georgia, 'Times New Roman', serif; font-size: 11px; fill: #2a1a0e; }
      .sm { font-family: 'EB Garamond', Georgia, 'Times New Roman', serif; font-size: 10px; fill: #4a4540; }
      .nm { font-family: 'EB Garamond', Georgia, 'Times New Roman', serif; font-size: 10px; font-style: italic; fill: #6a6560; }
      .cap { font-family: 'EB Garamond', Georgia, 'Times New Roman', serif; font-size: 11px; font-style: italic; fill: #4a4540; }
      .badge { font-family: 'EB Garamond', Georgia, 'Times New Roman', serif; font-size: 10px; font-weight: bold; fill: #fdfcfb; }
      .verdict-good { font-family: 'EB Garamond', Georgia, 'Times New Roman', serif; font-size: 11px; font-weight: bold; fill: #2a1a0e; }
      .verdict-bad { font-family: 'EB Garamond', Georgia, 'Times New Roman', serif; font-size: 11px; font-weight: bold; fill: #8a1f1f; }
    </style>
    <marker id="ar" markerWidth="8" markerHeight="6" refX="7" refY="3" orient="auto">
      <polygon points="0 0, 8 3, 0 6" fill="#2a1a0e"/>
    </marker>
  </defs>
  <rect width="700" height="440" fill="#fdfcfb"/>

  <text x="32" y="32" class="ti">Two ways to remove weights — only one shrinks the dense kernel</text>
  <text x="32" y="50" class="nm">embedded inference assumes dense GEMM · sparse formats almost never ship to an MCU</text>

  <!-- ============ LEFT: Unstructured pruning ============ -->
  <text x="170" y="82" text-anchor="middle" class="ph">Unstructured pruning</text>
  <text x="170" y="98" text-anchor="middle" class="sm">drop individual weights below threshold</text>

  <!-- Matrix: 8x10 grid centered around (170, 200), cell 18px, dimensions 144x180 -->
  <!-- top-left at (98, 110), cells at i*18, j*18 -->
  <g>
    <!-- non-zero cells (dark) and zero cells (white with border) -->
    <!-- Simple pattern: ~30% zeros scattered -->
    <!-- Row 0 -->
    <rect x="98"  y="110" width="18" height="18" fill="#4a4540"/>
    <rect x="116" y="110" width="18" height="18" fill="#fdfcfb" stroke="#c8c4c0"/>
    <rect x="134" y="110" width="18" height="18" fill="#4a4540"/>
    <rect x="152" y="110" width="18" height="18" fill="#4a4540"/>
    <rect x="170" y="110" width="18" height="18" fill="#fdfcfb" stroke="#c8c4c0"/>
    <rect x="188" y="110" width="18" height="18" fill="#4a4540"/>
    <rect x="206" y="110" width="18" height="18" fill="#4a4540"/>
    <rect x="224" y="110" width="18" height="18" fill="#fdfcfb" stroke="#c8c4c0"/>
    <!-- Row 1 -->
    <rect x="98"  y="128" width="18" height="18" fill="#fdfcfb" stroke="#c8c4c0"/>
    <rect x="116" y="128" width="18" height="18" fill="#4a4540"/>
    <rect x="134" y="128" width="18" height="18" fill="#4a4540"/>
    <rect x="152" y="128" width="18" height="18" fill="#fdfcfb" stroke="#c8c4c0"/>
    <rect x="170" y="128" width="18" height="18" fill="#4a4540"/>
    <rect x="188" y="128" width="18" height="18" fill="#fdfcfb" stroke="#c8c4c0"/>
    <rect x="206" y="128" width="18" height="18" fill="#4a4540"/>
    <rect x="224" y="128" width="18" height="18" fill="#4a4540"/>
    <!-- Row 2 -->
    <rect x="98"  y="146" width="18" height="18" fill="#4a4540"/>
    <rect x="116" y="146" width="18" height="18" fill="#4a4540"/>
    <rect x="134" y="146" width="18" height="18" fill="#fdfcfb" stroke="#c8c4c0"/>
    <rect x="152" y="146" width="18" height="18" fill="#4a4540"/>
    <rect x="170" y="146" width="18" height="18" fill="#fdfcfb" stroke="#c8c4c0"/>
    <rect x="188" y="146" width="18" height="18" fill="#4a4540"/>
    <rect x="206" y="146" width="18" height="18" fill="#fdfcfb" stroke="#c8c4c0"/>
    <rect x="224" y="146" width="18" height="18" fill="#4a4540"/>
    <!-- Row 3 -->
    <rect x="98"  y="164" width="18" height="18" fill="#fdfcfb" stroke="#c8c4c0"/>
    <rect x="116" y="164" width="18" height="18" fill="#4a4540"/>
    <rect x="134" y="164" width="18" height="18" fill="#4a4540"/>
    <rect x="152" y="164" width="18" height="18" fill="#4a4540"/>
    <rect x="170" y="164" width="18" height="18" fill="#4a4540"/>
    <rect x="188" y="164" width="18" height="18" fill="#fdfcfb" stroke="#c8c4c0"/>
    <rect x="206" y="164" width="18" height="18" fill="#4a4540"/>
    <rect x="224" y="164" width="18" height="18" fill="#4a4540"/>
    <!-- Row 4 -->
    <rect x="98"  y="182" width="18" height="18" fill="#4a4540"/>
    <rect x="116" y="182" width="18" height="18" fill="#fdfcfb" stroke="#c8c4c0"/>
    <rect x="134" y="182" width="18" height="18" fill="#4a4540"/>
    <rect x="152" y="182" width="18" height="18" fill="#fdfcfb" stroke="#c8c4c0"/>
    <rect x="170" y="182" width="18" height="18" fill="#4a4540"/>
    <rect x="188" y="182" width="18" height="18" fill="#4a4540"/>
    <rect x="206" y="182" width="18" height="18" fill="#fdfcfb" stroke="#c8c4c0"/>
    <rect x="224" y="182" width="18" height="18" fill="#4a4540"/>
    <!-- Row 5 -->
    <rect x="98"  y="200" width="18" height="18" fill="#4a4540"/>
    <rect x="116" y="200" width="18" height="18" fill="#4a4540"/>
    <rect x="134" y="200" width="18" height="18" fill="#fdfcfb" stroke="#c8c4c0"/>
    <rect x="152" y="200" width="18" height="18" fill="#4a4540"/>
    <rect x="170" y="200" width="18" height="18" fill="#4a4540"/>
    <rect x="188" y="200" width="18" height="18" fill="#fdfcfb" stroke="#c8c4c0"/>
    <rect x="206" y="200" width="18" height="18" fill="#4a4540"/>
    <rect x="224" y="200" width="18" height="18" fill="#fdfcfb" stroke="#c8c4c0"/>
    <!-- Row 6 -->
    <rect x="98"  y="218" width="18" height="18" fill="#fdfcfb" stroke="#c8c4c0"/>
    <rect x="116" y="218" width="18" height="18" fill="#4a4540"/>
    <rect x="134" y="218" width="18" height="18" fill="#4a4540"/>
    <rect x="152" y="218" width="18" height="18" fill="#fdfcfb" stroke="#c8c4c0"/>
    <rect x="170" y="218" width="18" height="18" fill="#4a4540"/>
    <rect x="188" y="218" width="18" height="18" fill="#4a4540"/>
    <rect x="206" y="218" width="18" height="18" fill="#fdfcfb" stroke="#c8c4c0"/>
    <rect x="224" y="218" width="18" height="18" fill="#4a4540"/>
    <!-- Row 7 -->
    <rect x="98"  y="236" width="18" height="18" fill="#4a4540"/>
    <rect x="116" y="236" width="18" height="18" fill="#fdfcfb" stroke="#c8c4c0"/>
    <rect x="134" y="236" width="18" height="18" fill="#4a4540"/>
    <rect x="152" y="236" width="18" height="18" fill="#4a4540"/>
    <rect x="170" y="236" width="18" height="18" fill="#fdfcfb" stroke="#c8c4c0"/>
    <rect x="188" y="236" width="18" height="18" fill="#4a4540"/>
    <rect x="206" y="236" width="18" height="18" fill="#4a4540"/>
    <rect x="224" y="236" width="18" height="18" fill="#fdfcfb" stroke="#c8c4c0"/>
  </g>

  <!-- dimensions label -->
  <text x="170" y="270" text-anchor="middle" class="sm">same dimensions · 8 columns × 8 rows</text>

  <!-- effect lines -->
  <g transform="translate(98, 290)">
    <text x="0" y="0" class="lb">Storage</text>
    <text x="160" y="0" text-anchor="end" class="verdict-good">shrinks (only non-zeros stored)</text>
    <text x="0" y="20" class="lb">SRAM</text>
    <text x="160" y="20" text-anchor="end" class="verdict-bad">unchanged</text>
    <text x="0" y="40" class="lb">Latency</text>
    <text x="160" y="40" text-anchor="end" class="verdict-bad">unchanged</text>
  </g>

  <rect x="100" y="355" width="140" height="22" fill="#8a1f1f"/>
  <text x="170" y="370" text-anchor="middle" class="badge">PAPER WIN, MCU LOSS</text>

  <!-- divider -->
  <line x1="350" y1="70" x2="350" y2="400" stroke="#c8c4c0" stroke-width="0.75"/>

  <!-- ============ RIGHT: Structured pruning ============ -->
  <text x="530" y="82" text-anchor="middle" class="ph">Structured pruning</text>
  <text x="530" y="98" text-anchor="middle" class="sm">drop whole output channels (columns)</text>

  <!-- Matrix: 5 columns × 8 rows (3 channels removed from original 8) -->
  <g>
    <!-- All cells dark (no zeros visible — fully dense) -->
    <!-- Row 0 -->
    <rect x="476" y="110" width="18" height="18" fill="#4a4540"/>
    <rect x="494" y="110" width="18" height="18" fill="#4a4540"/>
    <rect x="512" y="110" width="18" height="18" fill="#4a4540"/>
    <rect x="530" y="110" width="18" height="18" fill="#4a4540"/>
    <rect x="548" y="110" width="18" height="18" fill="#4a4540"/>
    <!-- Row 1 -->
    <rect x="476" y="128" width="18" height="18" fill="#4a4540"/>
    <rect x="494" y="128" width="18" height="18" fill="#4a4540"/>
    <rect x="512" y="128" width="18" height="18" fill="#4a4540"/>
    <rect x="530" y="128" width="18" height="18" fill="#4a4540"/>
    <rect x="548" y="128" width="18" height="18" fill="#4a4540"/>
    <!-- Row 2 -->
    <rect x="476" y="146" width="18" height="18" fill="#4a4540"/>
    <rect x="494" y="146" width="18" height="18" fill="#4a4540"/>
    <rect x="512" y="146" width="18" height="18" fill="#4a4540"/>
    <rect x="530" y="146" width="18" height="18" fill="#4a4540"/>
    <rect x="548" y="146" width="18" height="18" fill="#4a4540"/>
    <!-- Row 3 -->
    <rect x="476" y="164" width="18" height="18" fill="#4a4540"/>
    <rect x="494" y="164" width="18" height="18" fill="#4a4540"/>
    <rect x="512" y="164" width="18" height="18" fill="#4a4540"/>
    <rect x="530" y="164" width="18" height="18" fill="#4a4540"/>
    <rect x="548" y="164" width="18" height="18" fill="#4a4540"/>
    <!-- Row 4 -->
    <rect x="476" y="182" width="18" height="18" fill="#4a4540"/>
    <rect x="494" y="182" width="18" height="18" fill="#4a4540"/>
    <rect x="512" y="182" width="18" height="18" fill="#4a4540"/>
    <rect x="530" y="182" width="18" height="18" fill="#4a4540"/>
    <rect x="548" y="182" width="18" height="18" fill="#4a4540"/>
    <!-- Row 5 -->
    <rect x="476" y="200" width="18" height="18" fill="#4a4540"/>
    <rect x="494" y="200" width="18" height="18" fill="#4a4540"/>
    <rect x="512" y="200" width="18" height="18" fill="#4a4540"/>
    <rect x="530" y="200" width="18" height="18" fill="#4a4540"/>
    <rect x="548" y="200" width="18" height="18" fill="#4a4540"/>
    <!-- Row 6 -->
    <rect x="476" y="218" width="18" height="18" fill="#4a4540"/>
    <rect x="494" y="218" width="18" height="18" fill="#4a4540"/>
    <rect x="512" y="218" width="18" height="18" fill="#4a4540"/>
    <rect x="530" y="218" width="18" height="18" fill="#4a4540"/>
    <rect x="548" y="218" width="18" height="18" fill="#4a4540"/>
    <!-- Row 7 -->
    <rect x="476" y="236" width="18" height="18" fill="#4a4540"/>
    <rect x="494" y="236" width="18" height="18" fill="#4a4540"/>
    <rect x="512" y="236" width="18" height="18" fill="#4a4540"/>
    <rect x="530" y="236" width="18" height="18" fill="#4a4540"/>
    <rect x="548" y="236" width="18" height="18" fill="#4a4540"/>
  </g>
  <!-- ghost columns: dashed outlines showing removed -->
  <g>
    <rect x="566" y="110" width="18" height="144" fill="none" stroke="#c8c4c0" stroke-dasharray="3 2"/>
    <rect x="584" y="110" width="18" height="144" fill="none" stroke="#c8c4c0" stroke-dasharray="3 2"/>
    <rect x="602" y="110" width="18" height="144" fill="none" stroke="#c8c4c0" stroke-dasharray="3 2"/>
  </g>
  <text x="585" y="186" text-anchor="middle" class="nm">removed</text>

  <text x="530" y="270" text-anchor="middle" class="sm">smaller dense matrix · 5 columns × 8 rows</text>

  <!-- effect lines -->
  <g transform="translate(458, 290)">
    <text x="0" y="0" class="lb">Storage</text>
    <text x="160" y="0" text-anchor="end" class="verdict-good">shrinks</text>
    <text x="0" y="20" class="lb">SRAM</text>
    <text x="160" y="20" text-anchor="end" class="verdict-good">shrinks (fewer activation channels)</text>
    <text x="0" y="40" class="lb">Latency</text>
    <text x="160" y="40" text-anchor="end" class="verdict-good">shrinks (fewer MACs)</text>
  </g>

  <rect x="460" y="355" width="140" height="22" fill="#2a1a0e"/>
  <text x="530" y="370" text-anchor="middle" class="badge">WHAT EMBEDDED USES</text>

  <text x="350" y="416" text-anchor="middle" class="cap">Sparse matrices live in papers. Dense smaller matrices live in firmware. Structured pruning is the one that ships.</text>
</svg>
