<svg xmlns="http://www.w3.org/2000/svg" viewBox="0 0 700 480" role="img" aria-labelledby="t03 d03">
  <title id="t03">Three classes of NPU on MAC count vs power</title>
  <desc id="d03">A log-log scatter plot. The x-axis is MAC count from 10 to 100,000-plus. The y-axis is active power envelope from 1 milliwatt to 100 watts. Three clusters appear: microNPUs in the bottom-left, edge NPUs in the middle, and datacenter NPUs in the top-right.</desc>
  <defs>
    <style>
      .ti      { font-family: Lato, 'Helvetica Neue', Arial, sans-serif; font-size: 13px; font-weight: bold; fill: #111111; }
      .lb      { font-family: Lato, 'Helvetica Neue', Arial, sans-serif; font-size: 11px; fill: #111111; }
      .sm      { font-family: Lato, 'Helvetica Neue', Arial, sans-serif; font-size: 10px; fill: #555555; }
      .cap     { font-family: Lato, 'Helvetica Neue', Arial, sans-serif; font-size: 10px; font-style: italic; fill: #555555; }
      .cluster { fill: none; stroke: #888888; stroke-width: 1; stroke-dasharray: 5 3; }
    </style>
    <marker id="ar" markerWidth="8" markerHeight="6" refX="7" refY="3" orient="auto">
      <polygon points="0 0, 8 3, 0 6" fill="#111111"/>
    </marker>
  </defs>
  <rect width="700" height="480" fill="#FFFFFF"/>

  <text x="32" y="32" class="ti">NPU classes — MAC count vs active power</text>
  <text x="32" y="48" class="sm">log-log; only the bottom-left cluster is the embedded class</text>

  <!-- Plot area: x=90..640 (550 px, 4 decades), y=80..370 (290 px, 5 decades) -->
  <line x1="90" y1="370" x2="640" y2="370" stroke="#888888" stroke-width="1"/>
  <line x1="90" y1="80"  x2="90"  y2="370" stroke="#888888" stroke-width="1"/>

  <!-- X ticks: 10, 100, 1k, 10k, 100k — decade width = 137.5 px -->
  <line x1="90"    y1="368" x2="90"    y2="374" stroke="#666666"/>
  <text x="90"    y="387" text-anchor="middle" class="sm">10</text>
  <line x1="227.5" y1="368" x2="227.5" y2="374" stroke="#666666"/>
  <text x="227.5" y="387" text-anchor="middle" class="sm">100</text>
  <line x1="365"   y1="368" x2="365"   y2="374" stroke="#666666"/>
  <text x="365"   y="387" text-anchor="middle" class="sm">1,000</text>
  <line x1="502.5" y1="368" x2="502.5" y2="374" stroke="#666666"/>
  <text x="502.5" y="387" text-anchor="middle" class="sm">10,000</text>
  <line x1="640"   y1="368" x2="640"   y2="374" stroke="#666666"/>
  <text x="640"   y="387" text-anchor="middle" class="sm">100k+</text>
  <text x="365" y="406" text-anchor="middle" class="sm">MAC count (log scale)</text>

  <!-- Y ticks: 1 mW, 10 mW, 100 mW, 1 W, 10 W, 100 W — decade height = 58 px -->
  <line x1="88" y1="370" x2="92" y2="370" stroke="#666666"/>
  <text x="84" y="373" text-anchor="end" class="sm">1 mW</text>
  <line x1="88" y1="312" x2="92" y2="312" stroke="#666666"/>
  <text x="84" y="315" text-anchor="end" class="sm">10 mW</text>
  <line x1="88" y1="254" x2="92" y2="254" stroke="#666666"/>
  <text x="84" y="257" text-anchor="end" class="sm">100 mW</text>
  <line x1="88" y1="196" x2="92" y2="196" stroke="#666666"/>
  <text x="84" y="199" text-anchor="end" class="sm">1 W</text>
  <line x1="88" y1="138" x2="92" y2="138" stroke="#666666"/>
  <text x="84" y="141" text-anchor="end" class="sm">10 W</text>
  <line x1="88" y1="80"  x2="92" y2="80"  stroke="#666666"/>
  <text x="84" y="83"  text-anchor="end" class="sm">100 W</text>
  <text x="32" y="225" text-anchor="middle" class="sm" transform="rotate(-90 32 225)">active power (log scale)</text>

  <!-- Light gridlines -->
  <g stroke="#DDDDDD" stroke-width="0.5">
    <line x1="227.5" y1="80" x2="227.5" y2="370"/>
    <line x1="365"   y1="80" x2="365"   y2="370"/>
    <line x1="502.5" y1="80" x2="502.5" y2="370"/>
    <line x1="90" y1="312" x2="640" y2="312"/>
    <line x1="90" y1="254" x2="640" y2="254"/>
    <line x1="90" y1="196" x2="640" y2="196"/>
    <line x1="90" y1="138" x2="640" y2="138"/>
  </g>

  <!-- Cluster 1: microNPUs — ellipse -->
  <ellipse cx="185" cy="298" rx="88" ry="58" class="cluster"/>
  <text x="185" y="228" text-anchor="middle" class="lb">microNPUs</text>
  <text x="185" y="243" text-anchor="middle" class="sm">10–200 mW · MCU-scale</text>

  <!-- Syntiant NDP120: ~128 MACs, ~0.5 mW → x≈242, y≈369 (clamp to axis) -->
  <circle cx="195" cy="358" r="4" fill="#333333" stroke="#F5F5F5" stroke-width="1.5"/>
  <text x="195" y="350" text-anchor="middle" class="sm">Syntiant NDP120</text>

  <!-- Ethos-U55: ~256 MACs, ~100 mW → x≈284, y≈254 -->
  <circle cx="228" cy="280" r="4" fill="#333333" stroke="#F5F5F5" stroke-width="1.5"/>
  <text x="228" y="274" text-anchor="middle" class="sm">Ethos-U55</text>

  <!-- STM32N6: ~512 MACs, ~180 mW → x≈325, y≈240 -->
  <circle cx="284" cy="256" r="4" fill="#333333" stroke="#F5F5F5" stroke-width="1.5"/>
  <text x="284" y="250" text-anchor="middle" class="sm">STM32N6</text>

  <!-- K210: ~64 MACs, ~300 mW → x≈201, y≈230 -->
  <circle cx="158" cy="302" r="4" fill="#333333" stroke="#F5F5F5" stroke-width="1.5"/>
  <text x="158" y="316" text-anchor="middle" class="sm">K210</text>

  <!-- Cluster 2: edge NPUs -->
  <ellipse cx="440" cy="188" rx="92" ry="52" class="cluster"/>
  <text x="440" y="124" text-anchor="middle" class="lb">edge NPUs</text>
  <text x="440" y="139" text-anchor="middle" class="sm">0.5–5 W · cameras, drones</text>

  <!-- Coral Edge TPU: ~512 MACs, 2 W → x≈325, y≈ -->
  <circle cx="395" cy="182" r="4" fill="#555555" stroke="#F5F5F5" stroke-width="1.5"/>
  <text x="395" y="176" text-anchor="middle" class="sm">Coral TPU</text>

  <!-- Hailo-8: ~5000 MACs eff, 2.5 W → x≈462, y≈163 -->
  <circle cx="470" cy="165" r="4" fill="#555555" stroke="#F5F5F5" stroke-width="1.5"/>
  <text x="470" y="159" text-anchor="middle" class="sm">Hailo-8</text>

  <!-- Movidius Myriad X: ~1024 MACs, 1 W → x≈366, y≈196 -->
  <circle cx="416" cy="208" r="4" fill="#555555" stroke="#F5F5F5" stroke-width="1.5"/>
  <text x="416" y="223" text-anchor="middle" class="sm">Movidius</text>

  <!-- Cluster 3: datacenter NPUs -->
  <ellipse cx="600" cy="106" rx="54" ry="38" class="cluster"/>
  <text x="600" y="58" text-anchor="middle" class="lb">datacenter NPUs</text>
  <text x="600" y="73" text-anchor="middle" class="sm">30–300 W · not embedded</text>

  <!-- Google TPU v4 -->
  <circle cx="612" cy="103" r="4" fill="#888888" stroke="#F5F5F5" stroke-width="1.5"/>
  <text x="612" y="97" text-anchor="middle" class="sm">TPU v4</text>

  <!-- NVIDIA H100 -->
  <circle cx="585" cy="118" r="4" fill="#888888" stroke="#F5F5F5" stroke-width="1.5"/>
  <text x="585" y="130" text-anchor="middle" class="sm">H100</text>

  <!-- Embedded class highlight box + arrow -->
  <rect x="106" y="238" width="130" height="128" fill="none" stroke="#111111" stroke-width="1.5"/>
  <path d="M 236 302 L 270 302" fill="none" stroke="#111111" stroke-width="1" marker-end="url(#ar)"/>
  <text x="318" y="306" class="lb">the embedded class</text>

  <!-- Caption -->
  <text x="350" y="455" text-anchor="middle" class="cap">Embedded AI lives in the bottom-left cluster. The other two are different planets in MAC count and power.</text>
</svg>
