<svg xmlns="http://www.w3.org/2000/svg" viewBox="0 0 700 450" role="img" aria-labelledby="t03 d03">
  <title id="t03">Unstructured vs structured pruning — what actually shrinks on an MCU</title>
  <desc id="d03">Two weight-matrix diagrams side by side. Left: unstructured pruning with scattered zero values throughout a same-sized matrix. Right: structured pruning with entire output channels removed, leaving a smaller dense matrix.</desc>
  <defs>
    <style>
      .ti  { font-family: Lato, 'Helvetica Neue', Arial, sans-serif; font-size: 14px; font-weight: bold; fill: #111111; }
      .ph  { font-family: Lato, 'Helvetica Neue', Arial, sans-serif; font-size: 13px; font-weight: bold; fill: #111111; }
      .lb  { font-family: Lato, 'Helvetica Neue', Arial, sans-serif; font-size: 11px; fill: #333333; }
      .sm  { font-family: Lato, 'Helvetica Neue', Arial, sans-serif; font-size: 10px; fill: #555555; }
      .nm  { font-family: Lato, 'Helvetica Neue', Arial, sans-serif; font-size: 10px; font-style: italic; fill: #555555; }
      .cap { font-family: Lato, 'Helvetica Neue', Arial, sans-serif; font-size: 11px; font-style: italic; fill: #555555; }
      .badge{ font-family: Lato, 'Helvetica Neue', Arial, sans-serif; font-size: 10px; font-weight: bold; fill: #FFFFFF; }
      .good { font-family: Lato, 'Helvetica Neue', Arial, sans-serif; font-size: 11px; font-weight: bold; fill: #333333; }
      .bad  { font-family: Lato, 'Helvetica Neue', Arial, sans-serif; font-size: 11px; font-weight: bold; fill: #888888; }
    </style>
    <marker id="ar" markerWidth="8" markerHeight="6" refX="7" refY="3" orient="auto">
      <polygon points="0 0,8 3,0 6" fill="#333333"/>
    </marker>
  </defs>
  <rect width="700" height="450" fill="#FFFFFF"/>

  <text x="32" y="32" class="ti">Two ways to remove weights — only one shrinks the dense kernel</text>
  <text x="32" y="50" class="nm">embedded inference assumes dense GEMM · sparse formats almost never ship to an MCU</text>

  <!-- LEFT: Unstructured pruning -->
  <text x="170" y="82" text-anchor="middle" class="ph">Unstructured pruning</text>
  <text x="170" y="97" text-anchor="middle" class="sm">drop individual weights below threshold</text>

  <!-- 8x8 grid, cell 18px, top-left (98,110) -->
  <!-- non-zero = #555555, zero = #F5F5F5 with border #BBBBBB -->
  <g>
    <!-- Row 0 -->
    <rect x="98"  y="110" width="18" height="18" fill="#555555"/>
    <rect x="116" y="110" width="18" height="18" fill="#F5F5F5" stroke="#BBBBBB"/>
    <rect x="134" y="110" width="18" height="18" fill="#555555"/>
    <rect x="152" y="110" width="18" height="18" fill="#555555"/>
    <rect x="170" y="110" width="18" height="18" fill="#F5F5F5" stroke="#BBBBBB"/>
    <rect x="188" y="110" width="18" height="18" fill="#555555"/>
    <rect x="206" y="110" width="18" height="18" fill="#555555"/>
    <rect x="224" y="110" width="18" height="18" fill="#F5F5F5" stroke="#BBBBBB"/>
    <!-- Row 1 -->
    <rect x="98"  y="128" width="18" height="18" fill="#F5F5F5" stroke="#BBBBBB"/>
    <rect x="116" y="128" width="18" height="18" fill="#555555"/>
    <rect x="134" y="128" width="18" height="18" fill="#555555"/>
    <rect x="152" y="128" width="18" height="18" fill="#F5F5F5" stroke="#BBBBBB"/>
    <rect x="170" y="128" width="18" height="18" fill="#555555"/>
    <rect x="188" y="128" width="18" height="18" fill="#F5F5F5" stroke="#BBBBBB"/>
    <rect x="206" y="128" width="18" height="18" fill="#555555"/>
    <rect x="224" y="128" width="18" height="18" fill="#555555"/>
    <!-- Row 2 -->
    <rect x="98"  y="146" width="18" height="18" fill="#555555"/>
    <rect x="116" y="146" width="18" height="18" fill="#555555"/>
    <rect x="134" y="146" width="18" height="18" fill="#F5F5F5" stroke="#BBBBBB"/>
    <rect x="152" y="146" width="18" height="18" fill="#555555"/>
    <rect x="170" y="146" width="18" height="18" fill="#F5F5F5" stroke="#BBBBBB"/>
    <rect x="188" y="146" width="18" height="18" fill="#555555"/>
    <rect x="206" y="146" width="18" height="18" fill="#F5F5F5" stroke="#BBBBBB"/>
    <rect x="224" y="146" width="18" height="18" fill="#555555"/>
    <!-- Row 3 -->
    <rect x="98"  y="164" width="18" height="18" fill="#F5F5F5" stroke="#BBBBBB"/>
    <rect x="116" y="164" width="18" height="18" fill="#555555"/>
    <rect x="134" y="164" width="18" height="18" fill="#555555"/>
    <rect x="152" y="164" width="18" height="18" fill="#555555"/>
    <rect x="170" y="164" width="18" height="18" fill="#555555"/>
    <rect x="188" y="164" width="18" height="18" fill="#F5F5F5" stroke="#BBBBBB"/>
    <rect x="206" y="164" width="18" height="18" fill="#555555"/>
    <rect x="224" y="164" width="18" height="18" fill="#555555"/>
    <!-- Row 4 -->
    <rect x="98"  y="182" width="18" height="18" fill="#555555"/>
    <rect x="116" y="182" width="18" height="18" fill="#F5F5F5" stroke="#BBBBBB"/>
    <rect x="134" y="182" width="18" height="18" fill="#555555"/>
    <rect x="152" y="182" width="18" height="18" fill="#F5F5F5" stroke="#BBBBBB"/>
    <rect x="170" y="182" width="18" height="18" fill="#555555"/>
    <rect x="188" y="182" width="18" height="18" fill="#555555"/>
    <rect x="206" y="182" width="18" height="18" fill="#F5F5F5" stroke="#BBBBBB"/>
    <rect x="224" y="182" width="18" height="18" fill="#555555"/>
    <!-- Row 5 -->
    <rect x="98"  y="200" width="18" height="18" fill="#555555"/>
    <rect x="116" y="200" width="18" height="18" fill="#555555"/>
    <rect x="134" y="200" width="18" height="18" fill="#F5F5F5" stroke="#BBBBBB"/>
    <rect x="152" y="200" width="18" height="18" fill="#555555"/>
    <rect x="170" y="200" width="18" height="18" fill="#555555"/>
    <rect x="188" y="200" width="18" height="18" fill="#F5F5F5" stroke="#BBBBBB"/>
    <rect x="206" y="200" width="18" height="18" fill="#555555"/>
    <rect x="224" y="200" width="18" height="18" fill="#F5F5F5" stroke="#BBBBBB"/>
    <!-- Row 6 -->
    <rect x="98"  y="218" width="18" height="18" fill="#F5F5F5" stroke="#BBBBBB"/>
    <rect x="116" y="218" width="18" height="18" fill="#555555"/>
    <rect x="134" y="218" width="18" height="18" fill="#555555"/>
    <rect x="152" y="218" width="18" height="18" fill="#F5F5F5" stroke="#BBBBBB"/>
    <rect x="170" y="218" width="18" height="18" fill="#555555"/>
    <rect x="188" y="218" width="18" height="18" fill="#555555"/>
    <rect x="206" y="218" width="18" height="18" fill="#F5F5F5" stroke="#BBBBBB"/>
    <rect x="224" y="218" width="18" height="18" fill="#555555"/>
    <!-- Row 7 -->
    <rect x="98"  y="236" width="18" height="18" fill="#555555"/>
    <rect x="116" y="236" width="18" height="18" fill="#F5F5F5" stroke="#BBBBBB"/>
    <rect x="134" y="236" width="18" height="18" fill="#555555"/>
    <rect x="152" y="236" width="18" height="18" fill="#555555"/>
    <rect x="170" y="236" width="18" height="18" fill="#F5F5F5" stroke="#BBBBBB"/>
    <rect x="188" y="236" width="18" height="18" fill="#555555"/>
    <rect x="206" y="236" width="18" height="18" fill="#555555"/>
    <rect x="224" y="236" width="18" height="18" fill="#F5F5F5" stroke="#BBBBBB"/>
  </g>

  <text x="170" y="270" text-anchor="middle" class="sm">same dimensions · 8 × 8</text>

  <g transform="translate(98,288)">
    <text x="0"   y="0"  class="lb">Storage</text>
    <text x="145" y="0"  text-anchor="end" class="good">shrinks (non-zeros only)</text>
    <text x="0"   y="18" class="lb">SRAM</text>
    <text x="145" y="18" text-anchor="end" class="bad">unchanged</text>
    <text x="0"   y="36" class="lb">Latency</text>
    <text x="145" y="36" text-anchor="end" class="bad">unchanged</text>
  </g>

  <rect x="100" y="352" width="140" height="22" fill="#888888"/>
  <text x="170" y="367" text-anchor="middle" class="badge">PAPER WIN, MCU LOSS</text>

  <!-- divider -->
  <line x1="350" y1="70" x2="350" y2="400" stroke="#DDDDDD" stroke-width="1"/>

  <!-- RIGHT: Structured pruning -->
  <text x="530" y="82" text-anchor="middle" class="ph">Structured pruning</text>
  <text x="530" y="97" text-anchor="middle" class="sm">drop whole output channels</text>

  <!-- 5 cols × 8 rows, all dense (#444444), top-left (476,110) -->
  <g>
    <rect x="476" y="110" width="18" height="18" fill="#444444"/>
    <rect x="494" y="110" width="18" height="18" fill="#444444"/>
    <rect x="512" y="110" width="18" height="18" fill="#444444"/>
    <rect x="530" y="110" width="18" height="18" fill="#444444"/>
    <rect x="548" y="110" width="18" height="18" fill="#444444"/>

    <rect x="476" y="128" width="18" height="18" fill="#444444"/>
    <rect x="494" y="128" width="18" height="18" fill="#444444"/>
    <rect x="512" y="128" width="18" height="18" fill="#444444"/>
    <rect x="530" y="128" width="18" height="18" fill="#444444"/>
    <rect x="548" y="128" width="18" height="18" fill="#444444"/>

    <rect x="476" y="146" width="18" height="18" fill="#444444"/>
    <rect x="494" y="146" width="18" height="18" fill="#444444"/>
    <rect x="512" y="146" width="18" height="18" fill="#444444"/>
    <rect x="530" y="146" width="18" height="18" fill="#444444"/>
    <rect x="548" y="146" width="18" height="18" fill="#444444"/>

    <rect x="476" y="164" width="18" height="18" fill="#444444"/>
    <rect x="494" y="164" width="18" height="18" fill="#444444"/>
    <rect x="512" y="164" width="18" height="18" fill="#444444"/>
    <rect x="530" y="164" width="18" height="18" fill="#444444"/>
    <rect x="548" y="164" width="18" height="18" fill="#444444"/>

    <rect x="476" y="182" width="18" height="18" fill="#444444"/>
    <rect x="494" y="182" width="18" height="18" fill="#444444"/>
    <rect x="512" y="182" width="18" height="18" fill="#444444"/>
    <rect x="530" y="182" width="18" height="18" fill="#444444"/>
    <rect x="548" y="182" width="18" height="18" fill="#444444"/>

    <rect x="476" y="200" width="18" height="18" fill="#444444"/>
    <rect x="494" y="200" width="18" height="18" fill="#444444"/>
    <rect x="512" y="200" width="18" height="18" fill="#444444"/>
    <rect x="530" y="200" width="18" height="18" fill="#444444"/>
    <rect x="548" y="200" width="18" height="18" fill="#444444"/>

    <rect x="476" y="218" width="18" height="18" fill="#444444"/>
    <rect x="494" y="218" width="18" height="18" fill="#444444"/>
    <rect x="512" y="218" width="18" height="18" fill="#444444"/>
    <rect x="530" y="218" width="18" height="18" fill="#444444"/>
    <rect x="548" y="218" width="18" height="18" fill="#444444"/>

    <rect x="476" y="236" width="18" height="18" fill="#444444"/>
    <rect x="494" y="236" width="18" height="18" fill="#444444"/>
    <rect x="512" y="236" width="18" height="18" fill="#444444"/>
    <rect x="530" y="236" width="18" height="18" fill="#444444"/>
    <rect x="548" y="236" width="18" height="18" fill="#444444"/>
  </g>

  <!-- ghost columns showing removed channels -->
  <rect x="566" y="110" width="18" height="144" fill="none" stroke="#BBBBBB" stroke-dasharray="3 2"/>
  <rect x="584" y="110" width="18" height="144" fill="none" stroke="#BBBBBB" stroke-dasharray="3 2"/>
  <rect x="602" y="110" width="18" height="144" fill="none" stroke="#BBBBBB" stroke-dasharray="3 2"/>
  <text x="585" y="192" text-anchor="middle" class="nm">removed</text>

  <text x="530" y="270" text-anchor="middle" class="sm">smaller dense matrix · 5 × 8</text>

  <g transform="translate(458,288)">
    <text x="0"   y="0"  class="lb">Storage</text>
    <text x="160" y="0"  text-anchor="end" class="good">shrinks</text>
    <text x="0"   y="18" class="lb">SRAM</text>
    <text x="160" y="18" text-anchor="end" class="good">shrinks (fewer activation channels)</text>
    <text x="0"   y="36" class="lb">Latency</text>
    <text x="160" y="36" text-anchor="end" class="good">shrinks (fewer MACs)</text>
  </g>

  <rect x="460" y="352" width="140" height="22" fill="#333333"/>
  <text x="530" y="367" text-anchor="middle" class="badge">WHAT EMBEDDED USES</text>

  <text x="350" y="428" text-anchor="middle" class="cap">Sparse matrices live in papers. Dense smaller matrices live in firmware. Structured pruning is the one that ships.</text>
</svg>
