<svg xmlns="http://www.w3.org/2000/svg" viewBox="0 0 760 460" role="img" aria-labelledby="t01 d01">
  <title id="t01">Four-tier processing topology — on-device, near-edge, far-edge, cloud</title>
  <desc id="d01">Four columns showing processing tiers a sensor reading can traverse, annotated with latency, bandwidth, and compute ceiling. Latency and cost rise moving right; privacy and local control fall.</desc>
  <defs>
    <style>
      .ti  { font-family: Lato, 'Helvetica Neue', Arial, sans-serif; font-size: 15px; font-weight: bold; fill: #111111; }
      .h2  { font-family: Lato, 'Helvetica Neue', Arial, sans-serif; font-size: 12px; font-weight: bold; fill: #111111; }
      .lb  { font-family: Lato, 'Helvetica Neue', Arial, sans-serif; font-size: 11px; fill: #111111; }
      .sm  { font-family: Lato, 'Helvetica Neue', Arial, sans-serif; font-size: 10px; fill: #555555; }
      .nm  { font-family: Lato, 'Helvetica Neue', Arial, sans-serif; font-size: 10px; font-style: italic; fill: #555555; }
      .cap { font-family: Lato, 'Helvetica Neue', Arial, sans-serif; font-size: 11px; font-style: italic; fill: #555555; }
      .badge { font-family: Lato, 'Helvetica Neue', Arial, sans-serif; font-size: 10px; font-weight: bold; fill: #FFFFFF; }
    </style>
    <marker id="ar" markerWidth="9" markerHeight="7" refX="8" refY="3.5" orient="auto">
      <polygon points="0 0, 9 3.5, 0 7" fill="#333333"/>
    </marker>
  </defs>
  <rect width="760" height="460" fill="#FFFFFF"/>

  <text x="32" y="32" class="ti">Four tiers between the sensor and the datacenter</text>
  <text x="32" y="50" class="nm">latency, cost, and bandwidth ceiling all rise moving right; privacy falls</text>

  <!-- Tier 1: ON-DEVICE -->
  <rect x="40"  y="90" width="155" height="200" fill="#F5F5F5" stroke="#111111" stroke-width="1.5"/>
  <rect x="40"  y="90" width="155" height="22" fill="#111111"/>
  <text x="48"  y="106" class="badge">TIER 1 — ON-DEVICE</text>
  <text x="48"  y="130" class="h2">Endpoint MCU</text>
  <text x="48"  y="148" class="sm">model in flash + SRAM</text>
  <text x="48"  y="162" class="sm">only the label leaves</text>
  <text x="48"  y="182" class="lb">latency: 1–80 ms</text>
  <text x="48"  y="198" class="lb">bandwidth: n/a</text>
  <text x="48"  y="214" class="lb">compute: 100 M MACs</text>
  <text x="48"  y="238" class="sm">strengths: privacy, no net</text>
  <text x="48"  y="253" class="sm">limits: memory, energy</text>
  <text x="48"  y="268" class="sm">e.g. ESP32, STM32</text>

  <!-- Tier 2: NEAR-EDGE -->
  <rect x="210" y="90" width="155" height="200" fill="#F5F5F5" stroke="#444444" stroke-width="1.5"/>
  <rect x="210" y="90" width="155" height="22" fill="#444444"/>
  <text x="218" y="106" class="badge">TIER 2 — NEAR-EDGE</text>
  <text x="218" y="130" class="h2">Local gateway</text>
  <text x="218" y="148" class="sm">WiFi / Ethernet hop</text>
  <text x="218" y="162" class="sm">data stays in building</text>
  <text x="218" y="182" class="lb">latency: 1–50 ms</text>
  <text x="218" y="198" class="lb">bandwidth: 1–100 Mbps</text>
  <text x="218" y="214" class="lb">compute: 10 G MACs</text>
  <text x="218" y="238" class="sm">strengths: low jitter, mains</text>
  <text x="218" y="253" class="sm">limits: on-site hardware</text>
  <text x="218" y="268" class="sm">e.g. Raspberry Pi, Jetson</text>

  <!-- Tier 3: FAR-EDGE -->
  <rect x="380" y="90" width="155" height="200" fill="#F5F5F5" stroke="#777777" stroke-width="1.5"/>
  <rect x="380" y="90" width="155" height="22" fill="#777777"/>
  <text x="388" y="106" class="badge">TIER 3 — FAR-EDGE</text>
  <text x="388" y="130" class="h2">Regional server</text>
  <text x="388" y="148" class="sm">cellular / LoRaWAN / sat</text>
  <text x="388" y="162" class="sm">5G MEC or base station</text>
  <text x="388" y="182" class="lb">latency: 50–500 ms</text>
  <text x="388" y="198" class="lb">bandwidth: 1 k–1 M bps</text>
  <text x="388" y="214" class="lb">compute: 1 T MACs</text>
  <text x="388" y="238" class="sm">strengths: roaming devices</text>
  <text x="388" y="253" class="sm">limits: variable, costly</text>
  <text x="388" y="268" class="sm">e.g. NB-IoT, LTE-M, MEC</text>

  <!-- Tier 4: CLOUD -->
  <rect x="550" y="90" width="170" height="200" fill="#F5F5F5" stroke="#AAAAAA" stroke-width="1.5"/>
  <rect x="550" y="90" width="170" height="22" fill="#AAAAAA"/>
  <text x="558" y="106" class="badge" fill="#111111">TIER 4 — CLOUD</text>
  <text x="558" y="130" class="h2">Centralized datacenter</text>
  <text x="558" y="148" class="sm">always-on internet</text>
  <text x="558" y="162" class="sm">third-party processing</text>
  <text x="558" y="182" class="lb">latency: 100 ms–seconds</text>
  <text x="558" y="198" class="lb">bandwidth: 1–1000 Mbps</text>
  <text x="558" y="214" class="lb">compute: unlimited</text>
  <text x="558" y="238" class="sm">strengths: scale, fresh models</text>
  <text x="558" y="253" class="sm">limits: privacy, recurring $</text>
  <text x="558" y="268" class="sm">e.g. AWS, Azure, GCP</text>

  <!-- flow arrows between tiers -->
  <line x1="196" y1="190" x2="208" y2="190" stroke="#333333" stroke-width="1.2" marker-end="url(#ar)"/>
  <line x1="366" y1="190" x2="378" y2="190" stroke="#333333" stroke-width="1.2" marker-end="url(#ar)"/>
  <line x1="536" y1="190" x2="548" y2="190" stroke="#333333" stroke-width="1.2" marker-end="url(#ar)"/>

  <!-- bottom axis -->
  <line x1="40" y1="330" x2="720" y2="330" stroke="#333333" stroke-width="1" marker-end="url(#ar)"/>
  <text x="48"  y="324" class="sm">fast · private · constrained</text>
  <text x="718" y="324" text-anchor="end" class="sm">scalable · costly · always-online</text>
  <text x="380" y="348" text-anchor="middle" class="lb">latency, cost, and bandwidth ceiling all increase →</text>

  <!-- top bracket annotation -->
  <line x1="117" y1="86" x2="117" y2="74" stroke="#555555" stroke-width="1"/>
  <line x1="635" y1="86" x2="635" y2="74" stroke="#555555" stroke-width="1"/>
  <line x1="117" y1="74" x2="635" y2="74" stroke="#555555" stroke-width="1"/>
  <text x="376" y="70" text-anchor="middle" class="lb" fill="#555555">a single inference can hop any prefix of this chain</text>

  <!-- privacy note -->
  <rect x="380" y="370" width="340" height="38" fill="#F5F5F5" stroke="#888888" stroke-width="1" stroke-dasharray="4 3"/>
  <text x="550" y="386" text-anchor="middle" class="lb" fill="#333333">data leaves the device</text>
  <text x="550" y="402" text-anchor="middle" class="sm">HIPAA, GDPR, PCI-DSS can forbid this hop</text>

  <text x="40"  y="386" class="lb">data never leaves</text>
  <text x="40"  y="402" class="sm">privacy is structural, not policy</text>

  <text x="380" y="440" text-anchor="middle" class="cap">The decision is which prefix of these four tiers your application can afford on latency, energy, privacy, and money.</text>
</svg>
