<svg xmlns="http://www.w3.org/2000/svg" viewBox="0 0 700 460" role="img" aria-labelledby="t10f2 d10f2">
  <title id="t10f2">Latency distribution of repeated CNN inferences on Cortex-M7 — mean lies, the tail decides</title>
  <desc id="d10f2">Histogram of inference execution times with a long right tail. Vertical guides mark mean at 38 ms, p95 at 47 ms, p99 at 53 ms, and worst-case observed at 62 ms.</desc>
  <defs>
    <style>
      .ti { font-family: Lato, 'Helvetica Neue', Arial, sans-serif; font-size: 13px; font-weight: bold; fill: #111111; }
      .lb { font-family: Lato, 'Helvetica Neue', Arial, sans-serif; font-size: 11px; fill: #111111; }
      .sm { font-family: Lato, 'Helvetica Neue', Arial, sans-serif; font-size: 10px; fill: #555555; }
      .cap { font-family: Lato, 'Helvetica Neue', Arial, sans-serif; font-size: 10px; font-style: italic; fill: #555555; }
      .nm { font-family: Lato, 'Helvetica Neue', Arial, sans-serif; font-size: 11px; font-weight: bold; fill: #111111; }
      .ax { font-family: Lato, 'Helvetica Neue', Arial, sans-serif; font-size: 9px; fill: #555555; }
      .gd { stroke: #DDDDDD; stroke-width: 0.5; stroke-dasharray: 2 3; }
    </style>
    <marker id="ar1f2" markerWidth="8" markerHeight="6" refX="7" refY="3" orient="auto">
      <polygon points="0 0, 8 3, 0 6" fill="#111111"/>
    </marker>
  </defs>
  <rect width="700" height="460" fill="#FFFFFF"/>

  <text x="32" y="30" class="ti">10,000 inference runs — the mean is honest, the deadline is not</text>
  <text x="32" y="48" class="sm">Cortex-M7 at 400 MHz · 1D CNN · same model, same workload, varying cache and scene complexity</text>

  <!-- Plot area: 80..640 x 80..320 -->
  <line x1="80" y1="80" x2="640" y2="80" class="gd"/>
  <line x1="80" y1="140" x2="640" y2="140" class="gd"/>
  <line x1="80" y1="200" x2="640" y2="200" class="gd"/>
  <line x1="80" y1="260" x2="640" y2="260" class="gd"/>

  <!-- axes -->
  <line x1="80" y1="320" x2="640" y2="320" stroke="#555555"/>
  <line x1="80" y1="80"  x2="80"  y2="320" stroke="#555555"/>

  <!-- y-axis tick labels -->
  <text x="74" y="324" text-anchor="end" class="ax">0</text>
  <text x="74" y="264" text-anchor="end" class="ax">500</text>
  <text x="74" y="204" text-anchor="end" class="ax">1000</text>
  <text x="74" y="144" text-anchor="end" class="ax">1500</text>
  <text x="74" y="84"  text-anchor="end" class="ax">2000</text>
  <text x="40" y="200" text-anchor="middle" transform="rotate(-90 40 200)" class="sm">runs at this latency</text>

  <!-- x-axis ticks: 25..65 ms -->
  <text x="80"  y="338" text-anchor="middle" class="ax">25 ms</text>
  <text x="192" y="338" text-anchor="middle" class="ax">33</text>
  <text x="304" y="338" text-anchor="middle" class="ax">41</text>
  <text x="416" y="338" text-anchor="middle" class="ax">49</text>
  <text x="528" y="338" text-anchor="middle" class="ax">57</text>
  <text x="640" y="338" text-anchor="middle" class="ax">65 ms</text>
  <text x="360" y="356" text-anchor="middle" class="sm">execution time per inference</text>

  <!-- Histogram bars -->
  <g fill="#333333">
    <rect x="80"  y="318" width="13" height="2"/>
    <rect x="94"  y="314" width="13" height="6"/>
    <rect x="108" y="306" width="13" height="14"/>
    <rect x="122" y="290" width="13" height="30"/>
    <rect x="136" y="262" width="13" height="58"/>
    <rect x="150" y="226" width="13" height="94"/>
    <rect x="164" y="186" width="13" height="134"/>
    <rect x="178" y="150" width="13" height="170"/>
    <rect x="192" y="120" width="13" height="200"/>
    <rect x="206" y="98"  width="13" height="222"/>
    <rect x="220" y="84"  width="13" height="236"/>
    <rect x="234" y="80"  width="13" height="240"/>
    <rect x="248" y="86"  width="13" height="234"/>
    <rect x="262" y="104" width="13" height="216"/>
    <rect x="276" y="132" width="13" height="188"/>
    <rect x="290" y="166" width="13" height="154"/>
    <rect x="304" y="200" width="13" height="120"/>
    <rect x="318" y="226" width="13" height="94"/>
    <rect x="332" y="248" width="13" height="72"/>
    <rect x="346" y="262" width="13" height="58"/>
    <rect x="360" y="274" width="13" height="46"/>
    <rect x="374" y="284" width="13" height="36"/>
    <rect x="388" y="290" width="13" height="30"/>
    <rect x="402" y="296" width="13" height="24"/>
    <rect x="416" y="300" width="13" height="20"/>
    <rect x="430" y="304" width="13" height="16"/>
    <rect x="444" y="308" width="13" height="12"/>
    <rect x="458" y="310" width="13" height="10"/>
    <rect x="472" y="312" width="13" height="8"/>
    <rect x="486" y="313" width="13" height="7"/>
    <rect x="500" y="314" width="13" height="6"/>
    <rect x="514" y="315" width="13" height="5"/>
    <rect x="528" y="316" width="13" height="4"/>
    <rect x="542" y="316" width="13" height="4"/>
    <rect x="556" y="317" width="13" height="3"/>
    <rect x="570" y="317" width="13" height="3"/>
    <rect x="584" y="318" width="13" height="2"/>
    <rect x="598" y="318" width="13" height="2"/>
    <rect x="612" y="319" width="13" height="1"/>
    <rect x="626" y="319" width="13" height="1"/>
  </g>

  <!-- Vertical marker lines -->
  <!-- mean = 38 ms → x = 80 + (38-25)*14 = 262 -->
  <line x1="262" y1="60" x2="262" y2="320" stroke="#666666" stroke-width="1" stroke-dasharray="4 3"/>
  <text x="262" y="56" text-anchor="middle" class="nm">mean</text>
  <text x="262" y="70" text-anchor="middle" class="sm">38 ms</text>

  <!-- p95 = 47 ms → x = 388 -->
  <line x1="388" y1="60" x2="388" y2="320" stroke="#666666" stroke-width="1" stroke-dasharray="4 3"/>
  <text x="388" y="56" text-anchor="middle" class="nm">p95</text>
  <text x="388" y="70" text-anchor="middle" class="sm">47 ms</text>

  <!-- p99 = 53 ms → x = 472 -->
  <line x1="472" y1="60" x2="472" y2="320" stroke="#666666" stroke-width="1" stroke-dasharray="4 3"/>
  <text x="472" y="56" text-anchor="middle" class="nm">p99</text>
  <text x="472" y="70" text-anchor="middle" class="sm">53 ms</text>

  <!-- worst = 62 ms → x = 598 -->
  <line x1="598" y1="60" x2="598" y2="320" stroke="#111111" stroke-width="1.5"/>
  <text x="598" y="56" text-anchor="middle" class="nm">worst observed</text>
  <text x="598" y="70" text-anchor="middle" class="sm">62 ms</text>

  <!-- annotation: tail -->
  <path d="M 450 250 Q 520 260 580 300" fill="none" stroke="#555555" stroke-width="0.75" stroke-dasharray="3 2"/>
  <text x="420" y="244" class="sm">tail you cannot reason about from the mean</text>

  <!-- annotation: gap between mean and worst -->
  <line x1="262" y1="380" x2="598" y2="380" stroke="#111111" stroke-width="1" marker-end="url(#ar1f2)"/>
  <line x1="262" y1="376" x2="262" y2="384" stroke="#111111" stroke-width="1"/>
  <text x="430" y="396" text-anchor="middle" class="nm">+24 ms — variability the deadline must absorb</text>
  <text x="430" y="410" text-anchor="middle" class="sm">1.6× headroom between mean and worst-case, before any safety margin</text>

  <text x="350" y="440" text-anchor="middle" class="cap">Hard real-time systems must budget against the worst case. The mean tells you what usually happens; the deadline does not care.</text>
</svg>
