<svg xmlns="http://www.w3.org/2000/svg" viewBox="0 0 720 480" role="img" aria-labelledby="t01 d01">
  <title id="t01">Weights live in flash, activations live in RAM</title>
  <desc id="d01">A feedforward network with arrows flowing left to right through four layers. Weights persist in flash storage; activations are recomputed in RAM per inference and discarded after each layer.</desc>
  <defs>
    <style>
      .ti  { font-family: Lato, 'Helvetica Neue', Arial, sans-serif; font-size: 15px; font-weight: bold; fill: #000000; }
      .lb  { font-family: Lato, 'Helvetica Neue', Arial, sans-serif; font-size: 12px; fill: #000000; }
      .sm  { font-family: Lato, 'Helvetica Neue', Arial, sans-serif; font-size: 11px; fill: #555555; }
      .em  { font-family: Lato, 'Helvetica Neue', Arial, sans-serif; font-size: 12px; font-weight: bold; fill: #000000; }
      .cap { font-family: Lato, 'Helvetica Neue', Arial, sans-serif; font-size: 11px; font-style: italic; fill: #555555; }
    </style>
    <marker id="ar" markerWidth="8" markerHeight="6" refX="7" refY="3" orient="auto">
      <polygon points="0 0, 8 3, 0 6" fill="#000000"/>
    </marker>
    <marker id="arG" markerWidth="8" markerHeight="6" refX="7" refY="3" orient="auto">
      <polygon points="0 0, 8 3, 0 6" fill="#888888"/>
    </marker>
  </defs>
  <rect width="720" height="480" fill="#FFFFFF"/>
  <text x="360" y="30" text-anchor="middle" class="ti">Two memories. Two behaviors. One inference.</text>
  <!-- FLASH BAND -->
  <rect x="40" y="50" width="640" height="120" fill="#F5F5F5" stroke="#BBBBBB" stroke-width="1"/>
  <text x="56" y="72" class="em">Flash — weights</text>
  <text x="56" y="88" class="sm">fixed after training · large · persistent</text>
  <!-- Weight bricks -->
  <rect x="180" y="102" width="88" height="48" fill="#111111"/>
  <text x="224" y="122" text-anchor="middle" class="sm" fill="#FFFFFF">W&#x2081;</text>
  <text x="224" y="138" text-anchor="middle" class="sm" fill="#FFFFFF">784x128</text>
  <rect x="316" y="102" width="88" height="48" fill="#555555"/>
  <text x="360" y="122" text-anchor="middle" class="sm" fill="#FFFFFF">W&#x2082;</text>
  <text x="360" y="138" text-anchor="middle" class="sm" fill="#FFFFFF">128x128</text>
  <rect x="452" y="102" width="88" height="48" fill="#888888"/>
  <text x="496" y="122" text-anchor="middle" class="sm" fill="#FFFFFF">W&#x2083;</text>
  <text x="496" y="138" text-anchor="middle" class="sm" fill="#FFFFFF">128x10</text>
  <!-- Down arrows -->
  <line x1="224" y1="152" x2="224" y2="198" stroke="#888888" stroke-width="1" stroke-dasharray="3 3" marker-end="url(#arG)"/>
  <line x1="360" y1="152" x2="360" y2="198" stroke="#888888" stroke-width="1" stroke-dasharray="3 3" marker-end="url(#arG)"/>
  <line x1="496" y1="152" x2="496" y2="198" stroke="#888888" stroke-width="1" stroke-dasharray="3 3" marker-end="url(#arG)"/>
  <!-- Network nodes -->
  <circle cx="96"  cy="220" r="22" fill="#FFFFFF" stroke="#000000" stroke-width="1.5"/>
  <text x="96"  y="224" text-anchor="middle" class="sm" fill="#000000">x</text>
  <circle cx="224" cy="220" r="22" fill="#FFFFFF" stroke="#000000" stroke-width="1.5"/>
  <text x="224" y="224" text-anchor="middle" class="sm" fill="#000000">h&#x2081;</text>
  <circle cx="360" cy="220" r="22" fill="#FFFFFF" stroke="#000000" stroke-width="1.5"/>
  <text x="360" y="224" text-anchor="middle" class="sm" fill="#000000">h&#x2082;</text>
  <circle cx="496" cy="220" r="22" fill="#FFFFFF" stroke="#000000" stroke-width="1.5"/>
  <text x="496" y="224" text-anchor="middle" class="sm" fill="#000000">y&#x0302;</text>
  <!-- Forward arrows -->
  <line x1="120" y1="220" x2="200" y2="220" stroke="#000000" stroke-width="1.4" marker-end="url(#ar)"/>
  <line x1="248" y1="220" x2="336" y2="220" stroke="#000000" stroke-width="1.4" marker-end="url(#ar)"/>
  <line x1="384" y1="220" x2="472" y2="220" stroke="#000000" stroke-width="1.4" marker-end="url(#ar)"/>
  <!-- Layer labels -->
  <text x="96"  y="258" text-anchor="middle" class="sm">input</text>
  <text x="224" y="258" text-anchor="middle" class="sm">hidden 1</text>
  <text x="360" y="258" text-anchor="middle" class="sm">hidden 2</text>
  <text x="496" y="258" text-anchor="middle" class="sm">output</text>
  <!-- RAM BAND -->
  <rect x="40" y="278" width="640" height="88" fill="#F5F5F5" stroke="#BBBBBB" stroke-width="1"/>
  <text x="56" y="300" class="em">RAM — activations</text>
  <text x="56" y="316" class="sm">recomputed every inference · transient · only peak two layers held at once</text>
  <!-- Up arrows -->
  <line x1="224" y1="244" x2="224" y2="278" stroke="#888888" stroke-width="1" stroke-dasharray="3 3"/>
  <line x1="360" y1="244" x2="360" y2="278" stroke="#888888" stroke-width="1" stroke-dasharray="3 3"/>
  <!-- Activation buffers -->
  <rect x="192" y="326" width="64" height="24" fill="#FFFFFF" stroke="#000000" stroke-width="1"/>
  <text x="224" y="342" text-anchor="middle" class="sm">a&#x2081; (512 B)</text>
  <rect x="328" y="326" width="64" height="24" fill="#FFFFFF" stroke="#000000" stroke-width="1"/>
  <text x="360" y="342" text-anchor="middle" class="sm">a&#x2082; (512 B)</text>
  <!-- Discard arrow -->
  <path d="M 256 338 C 284 338, 300 338, 326 338" fill="none" stroke="#888888" stroke-width="1" stroke-dasharray="2 3" marker-end="url(#arG)"/>
  <text x="291" y="330" text-anchor="middle" class="sm">discarded</text>
  <!-- Side totals -->
  <text x="680" y="128" text-anchor="end" class="lb">~406 KB</text>
  <text x="680" y="344" text-anchor="end" class="lb">&lt; 1 KB peak</text>
  <!-- Caption -->
  <text x="360" y="444" text-anchor="middle" class="cap">Weights are paid once and stored. Activations are paid every inference and thrown away.</text>
</svg>
